# xmcd
#
# Track frame offsets: 
#        150
#        18425
#        32362
#        48483
#        60740
#        73859
#        91737
#        120796
#        146946
#        160571
#        175030
#        188166
#        197103
#        211933
#        230587
#        247638
#        262551
#        275770
#        288455
#        303727
#
# Disc length: 4361 seconds
#
# Revision: 3
# Processed by: cddbd v1.5.2PL0 Copyright (c) Steve Scherf et al.
# Submitted via: ExactAudioCopyFreeDBPlugin 1.0
#
DISCID=11110714
DTITLE=Sly and the Family Stone - Higher! [box set]
DYEAR=2013
DGENRE=Soul
TTITLE0=Luv n' Haight (single version)
TTITLE1=Family Affair
TTITLE2=Brave and Strong (single version)
TTITLE3=Runnin' Away (single version)
TTITLE4=(You Caught Me) Smilin' (single version)
TTITLE5=Spaced Cowboy
TTITLE6=You're the One (live)
TTITLE7=In Time
TTITLE8=If You Want Me to Stay (single version)
TTITLE9=Frisky (single version)
TTITLE10=Skin I'm In
TTITLE11=If It Were Left Up to Me (single version)
TTITLE12=Time for Livin' (single version)
TTITLE13=Can't Strain My Brain (single version)
TTITLE14=Loose Booty
TTITLE15=Le Lo Li (single version) (as "Sly Stone")
TTITLE16=Crossword Puzzle (single version) (as "Sly Stone")
TTITLE17=Family Again
TTITLE18=Hoboken (as "Sly Stone")
TTITLE19=High (as "Sly Stone")
EXTD=
EXTT0=
EXTT1=
EXTT2=
EXTT3=
EXTT4=
EXTT5=
EXTT6=
EXTT7=
EXTT8=
EXTT9=
EXTT10=
EXTT11=
EXTT12=
EXTT13=
EXTT14=
EXTT15=
EXTT16=
EXTT17=
EXTT18=
EXTT19=
PLAYORDER=
